<svg xmlns="http://www.w3.org/2000/svg" xmlns:xlink="http://www.w3.org/1999/xlink" width="500" zoomAndPan="magnify" viewBox="0 0 375 374.999991" height="500" preserveAspectRatio="xMidYMid meet" version="1.0"><defs><clipPath id="07017b3906"><path d="M 141.226562 30 L 229.726562 30 L 229.726562 160.320312 L 141.226562 160.320312 Z M 141.226562 30 " clip-rule="nonzero"/></clipPath><clipPath id="403db2ea62"><path d="M 37.28125 135.472656 L 167.78125 135.472656 L 167.78125 223.972656 L 37.28125 223.972656 Z M 37.28125 135.472656 " clip-rule="nonzero"/></clipPath><clipPath id="75b9c312c4"><path d="M 207.214844 135.238281 L 337.714844 135.238281 L 337.714844 223.738281 L 207.214844 223.738281 Z M 207.214844 135.238281 " clip-rule="nonzero"/></clipPath><clipPath id="9eeaa73f81"><path d="M 143.363281 199.980469 L 231.863281 199.980469 L 231.863281 330.480469 L 143.363281 330.480469 Z M 143.363281 199.980469 " clip-rule="nonzero"/></clipPath></defs><g clip-path="url(#07017b3906)"><path fill="#ffffff" d="M 229.640625 75.328125 C 229.46875 63.078125 224.738281 51.621094 216.320312 43.070312 C 210.570312 37.226562 203.433594 33.140625 195.6875 31.25 C 193.09375 30.621094 190.4375 30.238281 187.761719 30.105469 C 187.65625 30.097656 187.546875 30.09375 187.4375 30.089844 C 187.203125 30.078125 186.972656 30.070312 186.738281 30.0625 C 186.363281 30.050781 185.984375 30.042969 185.605469 30.042969 C 185.382812 30.042969 185.164062 30.042969 184.945312 30.050781 C 173.113281 30.230469 162.125 34.933594 154.007812 43.292969 C 145.796875 51.75 141.367188 63.128906 141.535156 75.339844 C 141.566406 77.71875 141.972656 80.457031 142.738281 83.480469 C 145.308594 93.667969 152.082031 107.726562 162.867188 125.265625 C 173.054688 141.824219 183.128906 155.460938 183.554688 156.035156 L 186.734375 160.320312 L 189.835938 155.976562 C 190.257812 155.390625 200.109375 141.515625 209.679688 125.246094 C 223.070312 102.484375 229.785156 85.691406 229.640625 75.328125 Z M 153.039062 76.578125 C 152.382812 76.566406 151.769531 76.296875 151.3125 75.8125 C 150.851562 75.328125 150.605469 74.6875 150.617188 74.011719 C 150.765625 64.554688 154.429688 55.71875 160.925781 49.136719 C 167.4375 42.542969 176.019531 38.988281 185.09375 39.136719 C 185.746094 39.144531 186.363281 39.417969 186.820312 39.902344 C 187.28125 40.390625 187.527344 41.03125 187.515625 41.707031 C 187.492188 43.085938 186.390625 44.195312 185.050781 44.195312 L 185.011719 44.195312 C 184.863281 44.195312 184.714844 44.191406 184.566406 44.191406 C 168.78125 44.191406 155.804688 57.507812 155.539062 74.089844 C 155.527344 74.765625 155.261719 75.394531 154.785156 75.867188 C 154.324219 76.328125 153.71875 76.578125 153.078125 76.578125 Z M 153.039062 76.578125 " fill-opacity="1" fill-rule="nonzero"/></g><g clip-path="url(#403db2ea62)"><path fill="#ffffff" d="M 82.789062 135.558594 C 70.535156 135.730469 59.078125 140.460938 50.53125 148.878906 C 44.6875 154.628906 40.601562 161.765625 38.710938 169.511719 C 38.078125 172.105469 37.695312 174.761719 37.5625 177.4375 C 37.558594 177.542969 37.550781 177.652344 37.546875 177.761719 C 37.539062 177.996094 37.527344 178.226562 37.519531 178.460938 C 37.511719 178.839844 37.503906 179.214844 37.503906 179.59375 C 37.503906 179.816406 37.503906 180.035156 37.507812 180.253906 C 37.6875 192.085938 42.390625 203.074219 50.753906 211.191406 C 59.207031 219.402344 70.589844 223.832031 82.796875 223.664062 C 85.175781 223.632812 87.914062 223.226562 90.9375 222.460938 C 101.125 219.890625 115.183594 213.121094 132.722656 202.332031 C 149.28125 192.144531 162.917969 182.070312 163.492188 181.644531 L 167.78125 178.46875 L 163.4375 175.363281 C 162.847656 174.941406 148.976562 165.089844 132.707031 155.519531 C 109.941406 142.128906 93.148438 135.414062 82.789062 135.558594 Z M 84.035156 212.160156 C 84.027344 212.816406 83.753906 213.429688 83.269531 213.890625 C 82.785156 214.347656 82.144531 214.59375 81.46875 214.582031 C 72.015625 214.433594 63.179688 210.773438 56.59375 204.273438 C 50 197.761719 46.445312 189.179688 46.59375 180.105469 C 46.605469 179.453125 46.875 178.839844 47.359375 178.378906 C 47.847656 177.921875 48.488281 177.671875 49.164062 177.683594 C 50.542969 177.707031 51.65625 178.808594 51.65625 180.148438 L 51.65625 180.1875 C 51.652344 180.335938 51.652344 180.484375 51.652344 180.632812 C 51.652344 196.417969 64.964844 209.394531 81.546875 209.660156 C 82.222656 209.671875 82.855469 209.9375 83.328125 210.414062 C 83.785156 210.875 84.035156 211.480469 84.035156 212.121094 Z M 84.035156 212.160156 " fill-opacity="1" fill-rule="nonzero"/></g><g clip-path="url(#75b9c312c4)"><path fill="#ffffff" d="M 292.207031 223.652344 C 304.460938 223.480469 315.917969 218.75 324.464844 210.332031 C 330.308594 204.585938 334.394531 197.449219 336.285156 189.699219 C 336.914062 187.105469 337.300781 184.449219 337.433594 181.773438 C 337.4375 181.667969 337.441406 181.558594 337.449219 181.449219 C 337.457031 181.21875 337.46875 180.984375 337.476562 180.753906 C 337.484375 180.375 337.492188 179.996094 337.492188 179.621094 C 337.492188 179.398438 337.492188 179.175781 337.488281 178.957031 C 337.308594 167.125 332.605469 156.136719 324.242188 148.019531 C 315.789062 139.808594 304.40625 135.378906 292.199219 135.546875 C 289.816406 135.578125 287.078125 135.984375 284.058594 136.75 C 273.871094 139.320312 259.8125 146.09375 242.273438 156.878906 C 225.714844 167.066406 212.074219 177.144531 211.5 177.566406 L 207.214844 180.746094 L 211.558594 183.847656 C 212.148438 184.269531 226.019531 194.121094 242.289062 203.691406 C 265.054688 217.082031 281.84375 223.796875 292.207031 223.652344 Z M 290.957031 147.050781 C 290.96875 146.394531 291.242188 145.78125 291.726562 145.324219 C 292.210938 144.867188 292.851562 144.617188 293.527344 144.628906 C 302.980469 144.777344 311.816406 148.441406 318.398438 154.9375 C 324.996094 161.449219 328.550781 170.03125 328.402344 179.105469 C 328.390625 179.761719 328.117188 180.375 327.632812 180.832031 C 327.148438 181.292969 326.507812 181.539062 325.832031 181.527344 C 324.449219 181.503906 323.339844 180.402344 323.339844 179.0625 L 323.339844 179.027344 C 323.34375 178.875 323.34375 178.726562 323.34375 178.578125 C 323.34375 162.792969 310.027344 149.816406 293.445312 149.550781 C 292.773438 149.539062 292.140625 149.273438 291.667969 148.796875 C 291.207031 148.335938 290.957031 147.730469 290.957031 147.089844 Z M 290.957031 147.050781 " fill-opacity="1" fill-rule="nonzero"/></g><g clip-path="url(#9eeaa73f81)"><path fill="#ffffff" d="M 143.453125 284.972656 C 143.621094 297.226562 148.351562 308.683594 156.769531 317.230469 C 162.519531 323.074219 169.65625 327.160156 177.402344 329.050781 C 179.996094 329.679688 182.652344 330.066406 185.328125 330.199219 C 185.4375 330.203125 185.546875 330.207031 185.652344 330.214844 C 185.886719 330.222656 186.117188 330.234375 186.351562 330.242188 C 186.730469 330.25 187.105469 330.257812 187.484375 330.257812 C 187.707031 330.257812 187.925781 330.257812 188.148438 330.253906 C 199.980469 330.074219 210.96875 325.371094 219.085938 317.007812 C 227.292969 308.554688 231.726562 297.171875 231.558594 284.964844 C 231.523438 282.582031 231.117188 279.84375 230.355469 276.824219 C 227.785156 266.636719 221.011719 252.578125 210.222656 235.039062 C 200.035156 218.480469 189.960938 204.839844 189.539062 204.269531 L 186.359375 199.980469 L 183.253906 204.324219 C 182.832031 204.914062 172.980469 218.785156 163.414062 235.054688 C 150.023438 257.820312 143.304688 274.609375 143.453125 284.972656 Z M 220.054688 283.722656 C 220.710938 283.734375 221.324219 284.007812 221.78125 284.492188 C 222.238281 284.976562 222.484375 285.617188 222.476562 286.292969 C 222.324219 295.746094 218.664062 304.582031 212.164062 311.164062 C 205.652344 317.761719 197.074219 321.316406 188 321.167969 C 187.34375 321.15625 186.730469 320.886719 186.273438 320.398438 C 185.8125 319.914062 185.566406 319.273438 185.578125 318.597656 C 185.597656 317.214844 186.699219 316.105469 188.039062 316.105469 L 188.078125 316.105469 C 188.230469 316.109375 188.378906 316.109375 188.527344 316.109375 C 204.3125 316.109375 217.289062 302.792969 217.554688 286.210938 C 217.5625 285.539062 217.828125 284.90625 218.304688 284.433594 C 218.765625 283.972656 219.375 283.722656 220.015625 283.722656 Z M 220.054688 283.722656 " fill-opacity="1" fill-rule="nonzero"/></g></svg>