<svg xmlns="http://www.w3.org/2000/svg" xmlns:xlink="http://www.w3.org/1999/xlink" width="500" zoomAndPan="magnify" viewBox="0 0 375 374.999991" height="500" preserveAspectRatio="xMidYMid meet" version="1.0"><defs><clipPath id="7dfca54329"><path d="M 14.085938 11.527344 L 360 11.527344 L 360 363.277344 L 14.085938 363.277344 Z M 14.085938 11.527344 " clip-rule="nonzero"/></clipPath><clipPath id="43eb952373"><path d="M 14.085938 43.027344 L 14.085938 331.972656 C 14.085938 349.371094 28.1875 363.472656 45.585938 363.472656 L 329.414062 363.472656 C 346.8125 363.472656 360.914062 349.371094 360.914062 331.972656 L 360.914062 43.027344 C 360.914062 25.628906 346.8125 11.527344 329.414062 11.527344 L 45.585938 11.527344 C 28.1875 11.527344 14.085938 25.628906 14.085938 43.027344 Z M 14.085938 43.027344 " clip-rule="nonzero"/></clipPath><clipPath id="135cedb9ec"><path d="M 98.652344 1.046875 L 182.511719 1.046875 L 182.511719 124.703125 L 98.652344 124.703125 Z M 98.652344 1.046875 " clip-rule="nonzero"/></clipPath><clipPath id="1bd1746d92"><path d="M 0.15625 101.160156 L 123.8125 101.160156 L 123.8125 185 L 0.15625 185 Z M 0.15625 101.160156 " clip-rule="nonzero"/></clipPath><clipPath id="ed95776b48"><path d="M 161.179688 101 L 284.839844 101 L 284.839844 184.796875 L 161.179688 184.796875 Z M 161.179688 101 " clip-rule="nonzero"/></clipPath><clipPath id="f2042327b6"><path d="M 100.679688 162.285156 L 184.539062 162.285156 L 184.539062 285.941406 L 100.679688 285.941406 Z M 100.679688 162.285156 " clip-rule="nonzero"/></clipPath><clipPath id="9bda863639"><rect x="0" width="285" y="0" height="286"/></clipPath></defs><g clip-path="url(#7dfca54329)"><g clip-path="url(#43eb952373)"><path fill="#7f22fe" d="M 13.976562 11.335938 L 359.703125 11.335938 L 359.703125 363.273438 L 13.976562 363.273438 Z M 13.976562 11.335938 " fill-opacity="1" fill-rule="nonzero"/></g></g><g transform="matrix(1, 0, 0, 1, 45, 44)"><g clip-path="url(#9bda863639)"><g clip-path="url(#135cedb9ec)"><path fill="#ffffff" d="M 182.429688 44.167969 C 182.269531 32.558594 177.785156 21.703125 169.808594 13.601562 C 164.363281 8.066406 157.601562 4.191406 150.257812 2.402344 C 147.800781 1.804688 145.285156 1.441406 142.746094 1.3125 C 142.648438 1.308594 142.542969 1.304688 142.441406 1.300781 C 142.21875 1.289062 142 1.28125 141.78125 1.273438 C 141.421875 1.265625 141.066406 1.257812 140.707031 1.257812 C 140.496094 1.257812 140.285156 1.257812 140.078125 1.261719 C 128.867188 1.433594 118.453125 5.890625 110.761719 13.8125 C 102.984375 21.824219 98.785156 32.609375 98.945312 44.175781 C 98.976562 46.433594 99.359375 49.027344 100.082031 51.890625 C 102.519531 61.542969 108.9375 74.867188 119.160156 91.484375 C 128.8125 107.175781 138.359375 120.097656 138.761719 120.644531 L 141.773438 124.703125 L 144.714844 120.589844 C 145.113281 120.03125 154.449219 106.886719 163.515625 91.46875 C 176.203125 69.898438 182.570312 53.988281 182.429688 44.167969 Z M 109.84375 45.351562 C 109.222656 45.34375 108.640625 45.085938 108.207031 44.625 C 107.773438 44.164062 107.539062 43.558594 107.550781 42.917969 C 107.691406 33.960938 111.160156 25.585938 117.320312 19.347656 C 123.488281 13.097656 131.621094 9.730469 140.21875 9.871094 C 140.839844 9.882812 141.421875 10.140625 141.855469 10.597656 C 142.289062 11.058594 142.523438 11.667969 142.511719 12.308594 C 142.492188 13.617188 141.449219 14.667969 140.179688 14.667969 L 140.144531 14.667969 C 140 14.664062 139.859375 14.664062 139.71875 14.664062 C 124.761719 14.664062 112.464844 27.28125 112.214844 42.992188 C 112.203125 43.632812 111.953125 44.230469 111.5 44.679688 C 111.0625 45.113281 110.488281 45.351562 109.882812 45.351562 Z M 109.84375 45.351562 " fill-opacity="1" fill-rule="nonzero"/></g><g clip-path="url(#1bd1746d92)"><path fill="#ffffff" d="M 43.277344 101.242188 C 31.667969 101.402344 20.8125 105.886719 12.710938 113.863281 C 7.171875 119.308594 3.300781 126.070312 1.511719 133.414062 C 0.914062 135.871094 0.550781 138.386719 0.421875 140.925781 C 0.417969 141.023438 0.414062 141.128906 0.410156 141.230469 C 0.398438 141.453125 0.390625 141.671875 0.382812 141.890625 C 0.375 142.25 0.367188 142.605469 0.367188 142.964844 C 0.367188 143.175781 0.367188 143.386719 0.371094 143.59375 C 0.542969 154.804688 5 165.21875 12.921875 172.910156 C 20.933594 180.6875 31.71875 184.886719 43.285156 184.726562 C 45.542969 184.695312 48.136719 184.3125 51 183.589844 C 60.652344 181.152344 73.976562 174.734375 90.59375 164.511719 C 106.285156 154.859375 119.207031 145.3125 119.75 144.910156 L 123.8125 141.898438 L 119.699219 138.957031 C 119.140625 138.558594 105.996094 129.222656 90.578125 120.15625 C 69.007812 107.46875 53.097656 101.101562 43.277344 101.242188 Z M 44.460938 173.828125 C 44.453125 174.449219 44.195312 175.03125 43.734375 175.464844 C 43.273438 175.898438 42.667969 176.132812 42.027344 176.121094 C 33.070312 175.980469 24.695312 172.511719 18.457031 166.351562 C 12.207031 160.183594 8.839844 152.050781 8.980469 143.453125 C 8.992188 142.832031 9.25 142.25 9.707031 141.816406 C 10.167969 141.382812 10.777344 141.148438 11.417969 141.160156 C 12.722656 141.179688 13.777344 142.222656 13.777344 143.492188 L 13.777344 143.527344 C 13.773438 143.671875 13.773438 143.8125 13.773438 143.953125 C 13.773438 158.910156 26.390625 171.207031 42.101562 171.457031 C 42.742188 171.46875 43.339844 171.71875 43.789062 172.171875 C 44.222656 172.609375 44.460938 173.183594 44.460938 173.789062 Z M 44.460938 173.828125 " fill-opacity="1" fill-rule="nonzero"/></g><g clip-path="url(#ed95776b48)"><path fill="#ffffff" d="M 241.71875 184.714844 C 253.328125 184.554688 264.183594 180.070312 272.285156 172.09375 C 277.820312 166.648438 281.695312 159.882812 283.484375 152.542969 C 284.082031 150.085938 284.445312 147.570312 284.574219 145.03125 C 284.578125 144.929688 284.582031 144.828125 284.585938 144.726562 C 284.597656 144.503906 284.605469 144.285156 284.613281 144.0625 C 284.621094 143.707031 284.628906 143.347656 284.628906 142.992188 C 284.628906 142.78125 284.628906 142.570312 284.625 142.363281 C 284.453125 131.152344 279.996094 120.738281 272.074219 113.046875 C 264.0625 105.269531 253.277344 101.070312 241.710938 101.230469 C 239.453125 101.257812 236.859375 101.644531 233.996094 102.367188 C 224.34375 104.804688 211.019531 111.222656 194.402344 121.445312 C 178.710938 131.097656 165.789062 140.644531 165.242188 141.046875 L 161.179688 144.058594 L 165.296875 147 C 165.855469 147.398438 179 156.734375 194.417969 165.800781 C 215.988281 178.488281 231.898438 184.851562 241.71875 184.714844 Z M 240.535156 112.128906 C 240.542969 111.507812 240.800781 110.925781 241.261719 110.492188 C 241.722656 110.058594 242.328125 109.824219 242.96875 109.832031 C 251.925781 109.976562 260.300781 113.445312 266.539062 119.605469 C 272.785156 125.773438 276.15625 133.90625 276.015625 142.503906 C 276.003906 143.125 275.746094 143.707031 275.289062 144.140625 C 274.824219 144.574219 274.21875 144.808594 273.578125 144.796875 C 272.269531 144.777344 271.21875 143.734375 271.21875 142.464844 L 271.21875 142.429688 C 271.222656 142.285156 271.222656 142.144531 271.222656 142.003906 C 271.222656 127.046875 258.605469 114.75 242.894531 114.5 C 242.253906 114.488281 241.65625 114.234375 241.207031 113.785156 C 240.773438 113.347656 240.535156 112.773438 240.535156 112.167969 Z M 240.535156 112.128906 " fill-opacity="1" fill-rule="nonzero"/></g><g clip-path="url(#f2042327b6)"><path fill="#ffffff" d="M 100.761719 242.820312 C 100.921875 254.433594 105.40625 265.289062 113.382812 273.386719 C 118.828125 278.925781 125.589844 282.796875 132.933594 284.589844 C 135.390625 285.1875 137.90625 285.550781 140.445312 285.675781 C 140.542969 285.679688 140.648438 285.683594 140.75 285.691406 C 140.972656 285.699219 141.191406 285.707031 141.410156 285.714844 C 141.769531 285.726562 142.125 285.730469 142.484375 285.730469 C 142.695312 285.730469 142.90625 285.730469 143.113281 285.726562 C 154.324219 285.554688 164.738281 281.101562 172.429688 273.175781 C 180.207031 265.164062 184.40625 254.378906 184.246094 242.8125 C 184.214844 240.558594 183.832031 237.960938 183.109375 235.097656 C 180.671875 225.445312 174.253906 212.125 164.03125 195.503906 C 154.378906 179.8125 144.832031 166.890625 144.429688 166.347656 L 141.417969 162.285156 L 138.476562 166.402344 C 138.078125 166.957031 128.742188 180.105469 119.675781 195.519531 C 106.988281 217.089844 100.621094 233.003906 100.761719 242.820312 Z M 173.347656 241.636719 C 173.96875 241.648438 174.550781 241.90625 174.984375 242.363281 C 175.417969 242.824219 175.652344 243.429688 175.640625 244.070312 C 175.5 253.03125 172.03125 261.402344 165.871094 267.640625 C 159.703125 273.890625 151.570312 277.257812 142.972656 277.117188 C 142.351562 277.109375 141.769531 276.851562 141.335938 276.390625 C 140.902344 275.929688 140.667969 275.320312 140.679688 274.683594 C 140.699219 273.375 141.742188 272.320312 143.011719 272.320312 L 143.046875 272.320312 C 143.191406 272.324219 143.332031 272.328125 143.472656 272.328125 C 158.429688 272.328125 170.726562 259.707031 170.976562 243.996094 C 170.988281 243.355469 171.238281 242.757812 171.691406 242.3125 C 172.128906 241.875 172.703125 241.636719 173.308594 241.636719 Z M 173.347656 241.636719 " fill-opacity="1" fill-rule="nonzero"/></g></g></g></svg>